<svg width="38" height="44" viewBox="0 0 38 44" fill="none" xmlns="http://www.w3.org/2000/svg">
<path d="M37.7255 20.0803L33.074 16.5843V6.18754C33.074 6.00535 33.0001 5.83004 32.8682 5.70112L27.2386 0.201094C27.1066 0.0721867 26.9272 0 26.7407 0H5.62958C5.24078 0 4.92587 0.307658 4.92587 0.687503V16.5843L0.274447 20.0803C0.102041 20.2109 0 20.412 0 20.6251V43.3125C0 43.6923 0.314908 44 0.703703 44H37.2963C37.6851 44 38 43.6923 38 43.3125V20.6251C38 20.412 37.8996 20.2092 37.7255 20.0803ZM33.074 18.3203L36.1422 20.6269L33.074 22.9334V18.3203ZM36.5926 22.0225V41.9189L23.3557 31.9709L36.5926 22.0225ZM19.0002 30.4305L35.2275 42.6269L2.77289 42.6252L19.0002 30.4288V30.4305ZM27.4446 2.34782L30.6711 5.50004H27.4446V2.34782ZM6.33352 1.37502H26.0372V6.18776C26.0372 6.5676 26.3521 6.87526 26.7409 6.87526H31.6671V23.9891L22.2021 31.1013L19.4295 29.0182C19.1762 28.8291 18.8243 28.8291 18.571 29.0182L15.7985 31.1013L6.33347 23.9891L6.33352 1.37502ZM4.92611 18.3186V22.9298L1.85796 20.6232L4.92611 18.3167V18.3186ZM14.6442 31.9688L1.40737 41.9168V22.0203L14.6442 31.9688Z" fill="#687AAB"/>
<path d="M6.33352 1.37502H26.0372V6.18776C26.0372 6.5676 26.3521 6.87526 26.7409 6.87526H31.6671V23.9891L22.2021 31.1013L19.4295 29.0182C19.1762 28.8291 18.8243 28.8291 18.571 29.0182L15.7985 31.1013L6.33347 23.9891L6.33352 1.37502Z" fill="white"/>
<path d="M19 19.9373C19.3888 19.9373 19.7037 19.6296 19.7037 19.2498C19.7037 18.8699 19.3888 18.5623 19 18.5623C17.0595 18.5623 15.4815 17.0205 15.4815 15.1248C15.4815 13.229 17.0595 11.6872 19 11.6872C20.9405 11.6872 22.5185 13.229 22.5185 15.1248C22.5185 15.5029 22.2018 15.8123 21.8148 15.8123C21.426 15.8123 21.1111 15.5029 21.1111 15.1248C21.1111 13.9869 20.1646 13.0622 19 13.0622C17.8354 13.0622 16.8889 13.9869 16.8889 15.1248C16.8889 16.2608 17.8354 17.1873 19 17.1873C19.5401 17.1873 20.0344 16.9879 20.4074 16.6613C20.7804 16.9879 21.2747 17.1873 21.8148 17.1873C22.9794 17.1873 23.9259 16.2626 23.9259 15.1248C23.9259 12.471 21.7163 10.312 18.9998 10.312C16.2832 10.312 14.0736 12.4707 14.0736 15.1248C14.0736 17.7788 16.2834 19.9373 19 19.9373ZM19 15.8123C18.6129 15.8123 18.2963 15.5029 18.2963 15.1248C18.2963 14.7466 18.6129 14.4372 19 14.4372C19.387 14.4372 19.7037 14.7466 19.7037 15.1248C19.7037 15.5029 19.387 15.8123 19 15.8123Z" fill="#687AAB"/>
</svg>
