<svg width="24" height="24" viewBox="0 0 24 24" fill="none" xmlns="http://www.w3.org/2000/svg">
<path d="M3.8585 10.6738C1.74012 10.6738 0 12.4139 0 14.5323V16.007C0 17.138 0.939489 18.0776 2.0706 18.0776H11.0483C12.1794 18.0776 13.1189 17.138 13.1189 16.007V14.5323C13.1189 12.4139 11.3788 10.6738 9.2604 10.6738H3.8585ZM3.8585 12.7444H9.2604C10.26 12.7444 11.0483 13.5327 11.0483 14.5323V16.007H2.0706V14.5323C2.0706 13.5327 2.85887 12.7444 3.8585 12.7444Z" fill="white"/>
<path d="M7.24328 18.0776C6.97 18.0767 6.70815 17.9677 6.51492 17.7745C6.32168 17.5812 6.21273 17.3194 6.2118 17.0462C6.21127 16.9102 6.23755 16.7754 6.2891 16.6496C6.34065 16.5238 6.41644 16.4094 6.51223 16.3129C6.60802 16.2164 6.72191 16.1397 6.84734 16.0873C6.97277 16.0348 7.10731 16.0075 7.24328 16.007H20.706C21.8615 16.007 22.769 15.092 22.769 13.9364V4.1794C22.769 3.02388 21.8615 2.1088 20.706 2.1088H14.6088C14.4728 2.10833 14.3383 2.08106 14.2129 2.02858C14.0874 1.9761 13.9735 1.89944 13.8778 1.80294C13.782 1.70644 13.7061 1.59203 13.6546 1.46622C13.603 1.3404 13.5768 1.20565 13.5773 1.06968C13.5783 0.79641 13.6872 0.534615 13.8804 0.341379C14.0737 0.148144 14.3355 0.0391445 14.6088 0.0382023H20.706C22.9803 0.0382023 24.8396 1.90513 24.8396 4.1794V13.9364C24.8396 16.2107 22.9803 18.0776 20.706 18.0776H7.24328Z" fill="white"/>
<path d="M6.74664 0C4.39945 0 2.46027 1.90386 2.46027 4.24053C2.46023 6.57723 4.39941 8.47345 6.74664 8.47341C9.09387 8.47345 11.0407 6.57723 11.0406 4.24053C11.0406 1.90386 9.09383 0 6.74664 0ZM6.74664 2.0706C7.99268 2.0706 8.97005 3.04049 8.97005 4.24053C8.97005 5.44061 7.99268 6.40281 6.74664 6.40281C5.50059 6.40281 4.53087 5.44061 4.53087 4.24053C4.53087 3.04049 5.50059 2.0706 6.74664 2.0706Z" fill="white"/>
<path d="M13.4551 8.02271C13.3191 8.02317 13.1846 8.05045 13.0592 8.10293C12.9337 8.15541 12.8198 8.23207 12.7241 8.32857C12.6283 8.42506 12.5525 8.53948 12.5009 8.66529C12.4494 8.7911 12.4231 8.92586 12.4236 9.06183C12.4246 9.33511 12.5335 9.59689 12.7267 9.79013C12.92 9.98337 13.1818 10.0924 13.4551 10.0933H19.6669C19.9402 10.0924 20.202 9.98337 20.3952 9.79013C20.5884 9.59689 20.6975 9.33511 20.6984 9.06183C20.6989 8.92586 20.6726 8.7911 20.6211 8.66529C20.5695 8.53948 20.4937 8.42506 20.3979 8.32857C20.3021 8.23207 20.1883 8.15541 20.0628 8.10293C19.9374 8.05045 19.8029 8.02317 19.6669 8.02271H13.4551Z" fill="white"/>
<path d="M13.4551 4.20996C13.1818 4.2109 12.92 4.3199 12.7268 4.51314C12.5336 4.70637 12.4246 4.96817 12.4236 5.24144C12.4231 5.37741 12.4493 5.51216 12.5009 5.63798C12.5524 5.76379 12.6283 5.8782 12.7241 5.9747C12.8198 6.0712 12.9337 6.14791 13.0592 6.20039C13.1846 6.25288 13.3191 6.28009 13.4551 6.28056H19.6669C19.8029 6.28009 19.9374 6.25288 20.0628 6.20039C20.1883 6.14791 20.3021 6.0712 20.3979 5.9747C20.4937 5.8782 20.5695 5.76379 20.6211 5.63798C20.6726 5.51216 20.6989 5.37741 20.6984 5.24144C20.6974 4.96817 20.5884 4.70637 20.3952 4.51314C20.202 4.3199 19.9402 4.2109 19.6669 4.20996H13.4551Z" fill="white"/>
<path d="M16.3432 11.843C16.07 11.844 15.8081 11.9529 15.6149 12.1461C15.4216 12.3394 15.3127 12.6012 15.3117 12.8745C15.3112 13.0105 15.3374 13.1452 15.389 13.271C15.4405 13.3968 15.5164 13.5113 15.6122 13.6078C15.708 13.7043 15.8219 13.7809 15.9473 13.8334C16.0727 13.8859 16.2073 13.9131 16.3432 13.9136H19.6669C19.8028 13.9131 19.9374 13.8859 20.0628 13.8334C20.1883 13.7809 20.3021 13.7043 20.3979 13.6078C20.4937 13.5113 20.5695 13.3968 20.6211 13.271C20.6726 13.1452 20.6989 13.0105 20.6984 12.8745C20.6974 12.6012 20.5884 12.3394 20.3952 12.1461C20.202 11.9529 19.9402 11.844 19.6669 11.843H16.3432Z" fill="white"/>
</svg>
