<svg width="24" height="24" viewBox="0 0 24 24" fill="none" xmlns="http://www.w3.org/2000/svg">
<path d="M2.59994 25H21.7992C22.2235 24.9996 22.6302 24.8309 22.9301 24.5309C23.2301 24.231 23.3988 23.8243 23.3992 23.4001V22.2001C23.3789 21.0929 22.4445 20.487 21.3993 20.6002V19.4002H23.7992C24.1173 19.3999 24.4223 19.2733 24.6473 19.0484C24.8723 18.8234 24.9988 18.5184 24.9991 18.2002C25.121 16.778 24.8497 15.3496 24.2149 14.071C23.58 12.7925 22.606 11.713 21.3993 10.9505V9.40056C21.3962 9.16334 21.3227 8.93238 21.1879 8.73711C23.6361 5.67057 21.3541 0.964951 17.3993 1.0009C13.7734 0.92942 11.3699 5.12259 13.2489 8.20061H4.19988C3.88174 8.20095 3.57673 8.32749 3.35177 8.55245C3.12681 8.77741 3.00028 9.08242 2.99993 9.40056V20.6002C1.95491 20.4871 1.01988 21.0928 1 22.2001V23.4001C1.00042 23.8243 1.16912 24.231 1.46908 24.5309C1.76904 24.8309 2.17574 24.9996 2.59994 25ZM24.1992 17.4003V18.2002C24.1991 18.3063 24.1569 18.408 24.0819 18.483C24.0069 18.558 23.9052 18.6002 23.7992 18.6002H10.9996C10.8936 18.6002 10.7919 18.558 10.7169 18.483C10.6419 18.408 10.5997 18.3063 10.5997 18.2002C10.2408 14.1886 13.3129 10.5772 17.3995 10.6006C19.2023 10.6026 20.9306 11.3196 22.2054 12.5944C23.4801 13.8691 24.1972 15.5975 24.1992 17.4003ZM19.5101 10.105C19.9038 9.91112 20.2691 9.66431 20.5958 9.37141C20.5965 9.38123 20.5993 9.3906 20.5993 9.40056V10.5167C20.2474 10.3516 19.8833 10.2139 19.5101 10.105ZM17.3994 1.80084C18.4599 1.80208 19.4765 2.2239 20.2264 2.97374C20.9762 3.72359 21.398 4.74025 21.3993 5.80069C21.1794 11.107 13.6187 11.1055 13.3996 5.80066C13.4008 4.74022 13.8226 3.72358 14.5725 2.97373C15.3223 2.22389 16.339 1.80209 17.3994 1.80084ZM3.7999 9.40056C3.79997 9.2945 3.84213 9.19281 3.91713 9.11781C3.99213 9.04281 4.09382 9.00065 4.19988 9.00058H13.8319C14.2426 9.4583 14.7371 9.83318 15.2887 10.105C13.5811 10.6152 12.1021 11.6996 11.1019 13.1747C10.1017 14.6498 9.64175 16.4251 9.79976 18.2003C9.80009 18.5184 9.9266 18.8234 10.1516 19.0484C10.3765 19.2733 10.6815 19.3999 10.9996 19.4002H20.5993V20.6002H14.9995C14.947 20.6001 14.8949 20.6105 14.8464 20.6305C14.7979 20.6506 14.7537 20.6801 14.7166 20.7172C14.6794 20.7544 14.65 20.7985 14.6299 20.847C14.6098 20.8956 14.5995 20.9476 14.5995 21.0001V21.8001H9.79968V21.0001C9.79971 20.9476 9.78939 20.8956 9.7693 20.847C9.74921 20.7985 9.71974 20.7544 9.6826 20.7172C9.64545 20.6801 9.60134 20.6506 9.5528 20.6305C9.50426 20.6105 9.45223 20.6001 9.3997 20.6002H3.7999V9.40056ZM1.79997 22.2001C1.80025 21.988 1.88462 21.7847 2.03458 21.6347C2.18455 21.4848 2.38786 21.4004 2.59994 21.4001H8.99971V22.2001C8.99968 22.2526 9.01001 22.3047 9.0301 22.3532C9.05019 22.4017 9.07965 22.4459 9.1168 22.483C9.15395 22.5201 9.19805 22.5496 9.24659 22.5697C9.29514 22.5898 9.34716 22.6001 9.3997 22.6001H14.9995C15.052 22.6001 15.1041 22.5898 15.1526 22.5697C15.2011 22.5496 15.2452 22.5201 15.2824 22.483C15.3195 22.4459 15.349 22.4017 15.3691 22.3532C15.3892 22.3047 15.3995 22.2526 15.3995 22.2001V21.4001H21.7992C22.0113 21.4004 22.2146 21.4848 22.3646 21.6347C22.5146 21.7847 22.5989 21.988 22.5992 22.2001V23.4001C22.5989 23.6121 22.5146 23.8155 22.3646 23.9654C22.2146 24.1154 22.0113 24.1998 21.7992 24.2H2.59994C2.38786 24.1998 2.18455 24.1154 2.03458 23.9654C1.88462 23.8155 1.80025 23.6121 1.79997 23.4001V22.2001Z" fill="white" stroke="white" stroke-width="0.5"/>
</svg>
