<svg width="14" height="14" viewBox="0 0 14 14" fill="none" xmlns="http://www.w3.org/2000/svg">
<path fill-rule="evenodd" clip-rule="evenodd" d="M4.29177 1.16797C4.45231 1.16797 4.5978 1.26126 4.66301 1.40601L6.82965 6.21601C6.92081 6.4183 6.82845 6.65516 6.62343 6.74511C6.41841 6.835 6.17835 6.74388 6.08718 6.54159L4.29177 2.55574L2.49634 6.54159C2.40521 6.74388 2.16514 6.835 1.96011 6.74511C1.75508 6.65516 1.66274 6.4183 1.75387 6.21601L3.92053 1.40601C3.98573 1.26126 4.13122 1.16797 4.29177 1.16797Z" fill="#666685"/>
<path fill-rule="evenodd" clip-rule="evenodd" d="M2.53125 4.77583C2.53125 4.55446 2.71314 4.375 2.9375 4.375H5.64583C5.8702 4.375 6.05208 4.55446 6.05208 4.77583C6.05208 4.99721 5.8702 5.17667 5.64583 5.17667H2.9375C2.71314 5.17667 2.53125 4.99721 2.53125 4.77583Z" fill="#666685"/>
<path fill-rule="evenodd" clip-rule="evenodd" d="M2.39845 8.9169C2.17408 8.9169 1.9922 8.73743 1.9922 8.51607C1.9922 8.2947 2.17408 8.11523 2.39845 8.11523H6.1901C6.35445 8.11523 6.50254 8.21288 6.56542 8.36268C6.62831 8.51243 6.59359 8.68485 6.4774 8.79948L3.37922 11.8563H6.1901C6.41446 11.8563 6.59635 12.0358 6.59635 12.2572C6.59635 12.4785 6.41446 12.658 6.1901 12.658H2.39845C2.23414 12.658 2.086 12.5604 2.02312 12.4106C1.96025 12.2608 1.995 12.0884 2.11119 11.9738L5.20934 8.9169H2.39845Z" fill="#666685"/>
<path fill-rule="evenodd" clip-rule="evenodd" d="M10.25 3C10.4744 3 10.6562 3.17947 10.6562 3.40083V10.5386C10.6562 10.76 10.4744 10.9394 10.25 10.9394C10.0256 10.9394 9.84375 10.76 9.84375 10.5386V3.40083C9.84375 3.17947 10.0256 3 10.25 3Z" fill="#666685"/>
<path fill-rule="evenodd" clip-rule="evenodd" d="M11.9547 8.92386C12.1101 9.0835 12.105 9.33726 11.9432 9.49064L10.5341 10.8268C10.3746 10.978 10.1217 10.9755 9.96534 10.8211L8.61118 9.48503C8.45252 9.32849 8.45252 9.07474 8.61118 8.9182C8.76983 8.76166 9.02702 8.76166 9.18567 8.9182L10.2583 9.97645L11.3803 8.91259C11.5421 8.7592 11.7992 8.76428 11.9547 8.92386Z" fill="#666685"/>
</svg>
