<svg width="16" height="16" viewBox="0 0 16 16" fill="none" xmlns="http://www.w3.org/2000/svg">
<path d="M15.2506 4.21217C14.7705 2.58462 13.413 1.22708 11.7855 0.747069C10.5479 0.387058 9.6929 0.417059 9.10038 0.859572C8.38786 1.39209 8.30536 2.35212 8.30536 3.03464V4.90219C8.30536 6.74724 9.14538 7.68477 10.7954 7.68477H12.948C13.623 7.68477 14.5905 7.60227 15.1231 6.88975C15.5806 6.30473 15.6181 5.44971 15.2506 4.21217Z" fill="#075FCC"/>
<path opacity="0.4" d="M13.1806 9.01908C12.9856 8.79407 12.7006 8.66657 12.4081 8.66657H9.723C8.40296 8.66657 7.33043 7.59404 7.33043 6.274V3.58892C7.33043 3.29641 7.20292 3.01141 6.97792 2.8164C6.76041 2.62139 6.4604 2.53139 6.17539 2.56889C4.41284 2.7939 2.79279 3.76143 1.73526 5.21647C0.670232 6.67901 0.28022 8.46406 0.61773 10.2491C1.10524 12.8292 3.1678 14.8918 5.75538 15.3793C6.16789 15.4618 6.5804 15.4993 6.99292 15.4993C8.35045 15.4993 9.66299 15.0793 10.7805 14.2617C12.2356 13.2042 13.2031 11.5842 13.4281 9.8216C13.4656 9.5291 13.3756 9.23659 13.1806 9.01908Z" fill="#075FCC"/>
</svg>
