<svg width="16" height="16" viewBox="0 0 16 16" fill="none" xmlns="http://www.w3.org/2000/svg">
<path opacity="0.4" d="M13.6662 6.79398H11.7395C10.1595 6.79398 8.87283 5.50732 8.87283 3.92732V2.00065C8.87283 1.63398 8.57283 1.33398 8.20617 1.33398H5.3795C3.32617 1.33398 1.66617 2.66732 1.66617 5.04732V10.954C1.66617 13.334 3.32617 14.6673 5.3795 14.6673H10.6195C12.6728 14.6673 14.3328 13.334 14.3328 10.954V7.46065C14.3328 7.09398 14.0328 6.79398 13.6662 6.79398Z" fill="#075FCC"/>
<path d="M10.5329 1.47365C10.2595 1.20032 9.78619 1.38699 9.78619 1.76699V4.09365C9.78619 5.06699 10.6129 5.87365 11.6195 5.87365C12.2529 5.88032 13.1329 5.88032 13.8862 5.88032C14.2662 5.88032 14.4662 5.43365 14.1995 5.16699C13.2395 4.20032 11.5195 2.46032 10.5329 1.47365Z" fill="#075FCC"/>
<path d="M8.99951 9.16602H4.99951C4.72618 9.16602 4.49951 8.93935 4.49951 8.66602C4.49951 8.39268 4.72618 8.16602 4.99951 8.16602H8.99951C9.27285 8.16602 9.49951 8.39268 9.49951 8.66602C9.49951 8.93935 9.27285 9.16602 8.99951 9.16602Z" fill="#075FCC"/>
<path d="M7.66618 11.834H4.99951C4.72618 11.834 4.49951 11.6073 4.49951 11.334C4.49951 11.0607 4.72618 10.834 4.99951 10.834H7.66618C7.93951 10.834 8.16618 11.0607 8.16618 11.334C8.16618 11.6073 7.93951 11.834 7.66618 11.834Z" fill="#075FCC"/>
</svg>
