<svg width="20" height="20" viewBox="0 0 14 14" fill="none" xmlns="http://www.w3.org/2000/svg">
<path d="M1.58301 7.00016C1.58301 4.44672 1.58301 3.17 2.37626 2.37675C3.16951 1.5835 4.44623 1.5835 6.99967 1.5835C9.55312 1.5835 10.8298 1.5835 11.6231 2.37675C12.4163 3.17 12.4163 4.44672 12.4163 7.00016C12.4163 9.5536 12.4163 10.8303 11.6231 11.6236C10.8298 12.4168 9.55312 12.4168 6.99967 12.4168C4.44623 12.4168 3.16951 12.4168 2.37626 11.6236C1.58301 10.8303 1.58301 9.5536 1.58301 7.00016Z" stroke="#667085" stroke-width="0.8125"/>
<path d="M2.66699 8.625H3.91362C4.35149 8.625 4.57042 8.625 4.7669 8.70503C4.78479 8.71231 4.80249 8.72008 4.81996 8.72831C5.01189 8.81872 5.16012 8.97984 5.45658 9.30208L5.47578 9.32296C5.75319 9.62449 5.89189 9.77525 6.06915 9.86417C6.10235 9.88082 6.13639 9.89576 6.17113 9.90892C6.35657 9.97917 6.56144 9.97917 6.97116 9.97917C7.35853 9.97917 7.55221 9.97917 7.72932 9.91575C7.76253 9.90385 7.79514 9.89035 7.82703 9.87527C7.99711 9.79489 8.13406 9.65793 8.40797 9.38402L8.53239 9.2596C8.84551 8.94649 9.00206 8.78993 9.20115 8.70746C9.40024 8.625 9.62164 8.625 10.0645 8.625H11.3337" stroke="#667085" stroke-width="0.8125" stroke-linecap="round"/>
<path d="M3.20801 8.625V7.8125C3.20801 7.36377 3.57178 7 4.02051 7H9.97884C10.4276 7 10.7913 7.36377 10.7913 7.8125V8.625" stroke="#667085" stroke-width="0.8125" stroke-linecap="round"/>
<path d="M3.20801 8.08333V6.1875C3.20801 5.73877 3.57178 5.375 4.02051 5.375H9.97884C10.4276 5.375 10.7913 5.73877 10.7913 6.1875V8.08333" stroke="#667085" stroke-width="0.8125" stroke-linecap="round"/>
<path d="M3.20801 6.45833V4.5625C3.20801 4.11377 3.57178 3.75 4.02051 3.75H9.97884C10.4276 3.75 10.7913 4.11377 10.7913 4.5625V6.45833" stroke="#667085" stroke-width="0.8125" stroke-linecap="round"/>
</svg>
