<svg width="18" height="18" viewBox="0 0 18 18" fill="none" xmlns="http://www.w3.org/2000/svg">
<g clip-path="url(#clip0_745_237)">
<path d="M5.56763 15.75C5.85837 16.4185 6.33805 16.9876 6.94774 17.3873C7.55743 17.787 8.27059 18 8.99963 18C9.72866 18 10.4418 17.787 11.0515 17.3873C11.6612 16.9876 12.1409 16.4185 12.4316 15.75H5.56763Z" fill="#858D9D"/>
<path d="M16.7936 9.41225L15.4916 5.12C15.0747 3.61876 14.1682 2.29983 12.916 1.37262C11.6639 0.445418 10.1379 -0.0369151 8.5803 0.00220521C7.02272 0.0413255 5.52286 0.599657 4.31884 1.58855C3.11482 2.57744 2.27567 3.94022 1.93461 5.4605L0.923612 9.61325C0.789237 10.1651 0.781957 10.7402 0.90232 11.2952C1.02268 11.8503 1.26755 12.3707 1.61843 12.8173C1.96931 13.2639 2.41705 13.6249 2.92785 13.8732C3.43865 14.1215 3.99917 14.2505 4.56711 14.2505H13.2049C13.7904 14.2505 14.3678 14.1134 14.8909 13.8502C15.4139 13.5869 15.868 13.2049 16.2169 12.7346C16.5657 12.2643 16.7996 11.7188 16.8997 11.1419C16.9999 10.565 16.9635 9.9726 16.7936 9.41225Z" fill="#858D9D"/>
</g>
<defs>
<clipPath id="clip0_745_237">
<rect width="18" height="18" fill="white" transform="translate(-0.000488281)"/>
</clipPath>
</defs>
</svg>
