<svg width="16" height="16" viewBox="0 0 16 16" fill="none" xmlns="http://www.w3.org/2000/svg">
<path d="M5.36686 1V1.33333H2.7002V1C2.7002 0.45 3.1502 0 3.7002 0H4.36686C4.91686 0 5.36686 0.45 5.36686 1Z" fill="#6A6A6A"/>
<path d="M13.3669 1V1.33333H10.7002V1C10.7002 0.45 11.1502 0 11.7002 0H12.3669C12.9169 0 13.3669 0.45 13.3669 1Z" fill="#6A6A6A"/>
<path d="M15.3669 4.66667V3.66667C15.3669 2.74767 14.6192 2 13.7002 2H2.36686C1.44786 2 0.700195 2.74767 0.700195 3.66667V4.66667H15.3669Z" fill="#6A6A6A"/>
<path d="M0.700195 5.3335V14.3335C0.700195 15.2525 1.44786 16.0002 2.36686 16.0002H13.7002C14.6192 16.0002 15.3669 15.2525 15.3669 14.3335V5.3335H0.700195ZM5.36686 12.8335C5.36686 13.2928 4.9932 13.6668 4.53353 13.6668H3.53353C3.07386 13.6668 2.7002 13.2928 2.7002 12.8335V11.8335C2.7002 11.3742 3.07386 11.0002 3.53353 11.0002H4.53353C4.9932 11.0002 5.36686 11.3742 5.36686 11.8335V12.8335ZM5.36686 8.8335C5.36686 9.29283 4.9932 9.66683 4.53353 9.66683H3.53353C3.07386 9.66683 2.7002 9.29283 2.7002 8.8335V7.8335C2.7002 7.37416 3.07386 7.00016 3.53353 7.00016H4.53353C4.9932 7.00016 5.36686 7.37416 5.36686 7.8335V8.8335ZM9.36686 12.8335C9.36686 13.2928 8.9932 13.6668 8.53353 13.6668H7.53353C7.07386 13.6668 6.7002 13.2928 6.7002 12.8335V11.8335C6.7002 11.3742 7.07386 11.0002 7.53353 11.0002H8.53353C8.9932 11.0002 9.36686 11.3742 9.36686 11.8335V12.8335ZM9.36686 8.8335C9.36686 9.29283 8.9932 9.66683 8.53353 9.66683H7.53353C7.07386 9.66683 6.7002 9.29283 6.7002 8.8335V7.8335C6.7002 7.37416 7.07386 7.00016 7.53353 7.00016H8.53353C8.9932 7.00016 9.36686 7.37416 9.36686 7.8335V8.8335ZM13.3669 12.8335C13.3669 13.2928 12.9932 13.6668 12.5335 13.6668H11.5335C11.0739 13.6668 10.7002 13.2928 10.7002 12.8335V11.8335C10.7002 11.3742 11.0739 11.0002 11.5335 11.0002H12.5335C12.9932 11.0002 13.3669 11.3742 13.3669 11.8335V12.8335ZM13.3669 8.8335C13.3669 9.29283 12.9932 9.66683 12.5335 9.66683H11.5335C11.0739 9.66683 10.7002 9.29283 10.7002 8.8335V7.8335C10.7002 7.37416 11.0739 7.00016 11.5335 7.00016H12.5335C12.9932 7.00016 13.3669 7.37416 13.3669 7.8335V8.8335Z" fill="#6A6A6A"/>
</svg>
