<svg width="24" height="24" viewBox="0 0 24 24" fill="none" xmlns="http://www.w3.org/2000/svg">
<path fill-rule="evenodd" clip-rule="evenodd" d="M8.62195 1C8.5712 0.999804 8.52091 1.00965 8.47398 1.02898C8.42705 1.04831 8.38442 1.07674 8.34853 1.11263C8.31264 1.14852 8.28421 1.19115 8.26488 1.23808C8.24555 1.28501 8.2357 1.3353 8.2359 1.38605C8.2361 1.43655 8.24624 1.48651 8.26575 1.53309C8.28526 1.57967 8.31375 1.62195 8.34959 1.65752C8.38544 1.69309 8.42794 1.72125 8.47468 1.74039C8.52141 1.75953 8.57145 1.76928 8.62195 1.76909H9.81688V3.23215C8.53721 3.52869 7.35101 4.06966 6.31095 4.80411L4.95979 3.45296C4.88774 3.38133 4.79026 3.34112 4.68865 3.34112C4.58705 3.34112 4.48957 3.38133 4.41752 3.45296L2.77722 5.09027C2.7413 5.126 2.71279 5.16849 2.69334 5.21527C2.67389 5.26206 2.66388 5.31223 2.66388 5.3629C2.66388 5.41357 2.67389 5.46374 2.69334 5.51053C2.71279 5.55732 2.7413 5.5998 2.77722 5.63554L4.09306 6.94913C2.82028 8.62789 2.06445 10.7186 2.06445 12.9846C2.06445 18.5101 6.55596 23 12.0881 23C17.6202 23 22.114 18.5101 22.114 12.9846C22.114 8.24025 18.8003 4.26284 14.3615 3.2329V1.76909H15.5565C15.6581 1.76889 15.7555 1.72849 15.8274 1.65673C15.8993 1.58496 15.9399 1.48765 15.9403 1.38605C15.9405 1.33549 15.9307 1.28538 15.9115 1.2386C15.8923 1.19182 15.8641 1.14929 15.8284 1.11343C15.7928 1.07757 15.7504 1.0491 15.7037 1.02963C15.6571 1.01017 15.607 1.0001 15.5565 1H8.62195ZM10.586 1.76909H13.5924V3.08569C13.1016 3.01175 12.5994 2.97304 12.0881 2.97304C11.5778 2.97304 11.0758 3.0113 10.586 3.08495V1.76909ZM12.0881 3.74212C12.6986 3.74212 13.2945 3.8018 13.8718 3.91411C13.8932 3.92 13.9151 3.92403 13.9372 3.92615C18.1662 4.7805 21.3449 8.50796 21.3449 12.9847C21.3449 18.0939 17.2051 22.2302 12.0881 22.2302C6.97108 22.2302 2.83132 18.0939 2.83132 12.9847C2.83132 10.8025 3.58695 8.79894 4.85091 7.21879C4.86131 7.21103 4.87131 7.20275 4.88087 7.19399C4.91097 7.16375 4.93582 7.12873 4.95442 7.09034C5.40083 6.55219 5.90783 6.06585 6.46404 5.64079C6.49425 5.62383 6.52203 5.60286 6.54662 5.57846C6.54688 5.57793 6.54714 5.57741 6.54739 5.57688C7.61997 4.77628 8.87259 4.20327 10.2343 3.92756C10.2634 3.92531 10.2921 3.91977 10.3199 3.91103C10.8921 3.8008 11.4834 3.74212 12.0881 3.74212ZM4.68791 4.27011L5.69583 5.27578C5.29784 5.60548 4.92616 5.9656 4.5835 6.35205L3.59211 5.3629L4.68791 4.27011ZM12.221 5.35164C12.1701 5.35075 12.1195 5.35998 12.0721 5.37881C12.0248 5.39765 11.9817 5.42569 11.9453 5.46133C11.9089 5.49697 11.8799 5.53948 11.8601 5.58641C11.8402 5.63333 11.8299 5.68373 11.8297 5.73467V8.79523C11.8301 8.8967 11.8706 8.9939 11.9423 9.06565C12.0141 9.1374 12.1113 9.17788 12.2128 9.17828C12.3147 9.17867 12.4127 9.13854 12.4851 9.0667C12.5575 8.99487 12.5984 8.89722 12.5988 8.79523V6.20634C16.1588 6.47877 18.9663 9.37309 18.9663 12.9846C18.9663 16.7816 15.8911 19.8546 12.0881 19.8546C8.28506 19.8546 5.2129 16.7816 5.2129 12.9846C5.2129 11.3524 5.79313 9.77641 6.85321 8.53387C6.88606 8.49551 6.91104 8.45105 6.92671 8.40304C6.94238 8.35502 6.94844 8.30439 6.94454 8.25404C6.94063 8.20368 6.92685 8.15459 6.90398 8.10956C6.8811 8.06453 6.84958 8.02445 6.81121 7.9916C6.7728 7.9588 6.7283 7.93388 6.68025 7.91828C6.63221 7.90267 6.58156 7.89669 6.53121 7.90066C6.48085 7.90464 6.43177 7.9185 6.38677 7.94145C6.34177 7.96439 6.30173 7.99598 6.26894 8.03441C5.0903 9.41592 4.44312 11.1696 4.44312 12.9846C4.44312 17.1978 7.87004 20.6236 12.0881 20.6236C16.3062 20.6236 19.7354 17.1978 19.7354 12.9846C19.7354 8.82237 16.3875 5.42311 12.221 5.35164ZM7.8138 8.32883C7.75053 8.33169 7.68894 8.35013 7.63451 8.38252C7.58007 8.41491 7.53448 8.46024 7.50178 8.51449C7.46909 8.56874 7.4503 8.63022 7.44708 8.69348C7.44386 8.75674 7.45632 8.81981 7.48334 8.8771C7.48334 8.8771 8.08546 10.1796 8.75563 11.5629C9.09072 12.2545 9.44223 12.9664 9.74627 13.5494C10.0503 14.1324 10.2725 14.5503 10.4816 14.7984C11.1524 15.595 12.3514 15.7008 13.1493 15.0313C13.9472 14.3617 14.053 13.1601 13.3821 12.3635C13.1731 12.1153 12.7952 11.8253 12.2721 11.4262C11.749 11.027 11.1089 10.5602 10.4838 10.1118C9.2338 9.21514 8.05114 8.39793 8.05114 8.39793C7.98179 8.3494 7.89836 8.32512 7.8138 8.32883ZM8.8037 9.87075C9.2556 10.1869 9.40351 10.2834 10.0354 10.7367C10.657 11.1826 11.2947 11.6488 11.8072 12.0398C12.3197 12.4309 12.7324 12.7894 12.7918 12.86C13.1949 13.3385 13.1354 14.0385 12.6559 14.4409C12.1763 14.8434 11.472 14.7836 11.0689 14.305C11.0094 14.2344 10.7284 13.7631 10.4305 13.1919C10.1327 12.6208 9.78135 11.9157 9.44814 11.2279C9.10979 10.5295 9.03802 10.3693 8.8037 9.87075Z" fill="#555555" stroke="#555555" stroke-width="0.5"/>
</svg>
