<svg width="14" height="14" viewBox="0 0 14 14" fill="none" xmlns="http://www.w3.org/2000/svg">
<path d="M6.51218 12.8231H4.23717C2.11926 12.8231 1.17676 11.8806 1.17676 9.76266V7.48766C1.17676 5.36975 2.11926 4.42725 4.23717 4.42725H6.51218C8.63009 4.42725 9.57259 5.36975 9.57259 7.48766V9.76266C9.57259 11.8806 8.63009 12.8231 6.51218 12.8231ZM4.23717 5.23975C2.55801 5.23975 1.98926 5.8085 1.98926 7.48766V9.76266C1.98926 11.4418 2.55801 12.0106 4.23717 12.0106H6.51218C8.19134 12.0106 8.76009 11.4418 8.76009 9.76266V7.48766C8.76009 5.8085 8.19134 5.23975 6.51218 5.23975H4.23717Z" fill="#003D86"/>
<path d="M9.76218 9.57308H9.16634C8.94426 9.57308 8.76009 9.38891 8.76009 9.16683V7.48766C8.76009 5.8085 8.19134 5.23975 6.51217 5.23975H4.83301C4.61092 5.23975 4.42676 5.05558 4.42676 4.8335V4.23766C4.42676 2.11975 5.36926 1.17725 7.48717 1.17725H9.76218C11.8801 1.17725 12.8226 2.11975 12.8226 4.23766V6.51266C12.8226 8.63058 11.8801 9.57308 9.76218 9.57308ZM9.57259 8.76058H9.76218C11.4413 8.76058 12.0101 8.19183 12.0101 6.51266V4.23766C12.0101 2.5585 11.4413 1.98975 9.76218 1.98975H7.48717C5.80801 1.98975 5.23926 2.5585 5.23926 4.23766V4.42725H6.51217C8.63009 4.42725 9.57259 5.36975 9.57259 7.48766V8.76058Z" fill="#003D86"/>
</svg>
