<svg width="17" height="16" viewBox="0 0 17 16" fill="none" xmlns="http://www.w3.org/2000/svg">
<path d="M10.7621 2.70211L10.4276 3.07375L10.4276 3.07375L10.7621 2.70211ZM13.4013 5.07737L13.0668 5.44902L13.0668 5.44902L13.4013 5.07737ZM14.9362 6.76907L14.4794 6.97249L14.4794 6.97249L14.9362 6.76907ZM2.61454 13.8853L2.9681 13.5317L2.9681 13.5317L2.61454 13.8853ZM14.3858 13.8853L14.0322 13.5317L14.0322 13.5317L14.3858 13.8853ZM9.8335 14.1663H7.16683V15.1663H9.8335V14.1663ZM2.3335 9.33301V6.66634H1.3335V9.33301H2.3335ZM14.6668 9.04161V9.33301H15.6668V9.04161H14.6668ZM10.4276 3.07375L13.0668 5.44902L13.7358 4.70572L11.0966 2.33046L10.4276 3.07375ZM15.6668 9.04161C15.6668 7.91604 15.6769 7.20336 15.3929 6.56565L14.4794 6.97249C14.6567 7.37065 14.6668 7.8277 14.6668 9.04161H15.6668ZM13.0668 5.44902C13.9691 6.26108 14.3021 6.57434 14.4794 6.97249L15.3929 6.56565C15.1089 5.92795 14.5724 5.45869 13.7358 4.70572L13.0668 5.44902ZM7.18669 1.83301C8.24122 1.83301 8.63917 1.84073 8.99385 1.97683L9.35211 1.04321C8.78422 0.825289 8.1655 0.833008 7.18669 0.833008V1.83301ZM11.0966 2.33046C10.3726 1.67886 9.91993 1.2611 9.35211 1.04321L8.99385 1.97683C9.3486 2.11296 9.64783 2.37192 10.4276 3.07375L11.0966 2.33046ZM7.16683 14.1663C5.89562 14.1663 4.9925 14.1653 4.3074 14.0732C3.63667 13.983 3.25024 13.8139 2.9681 13.5317L2.26099 14.2388C2.7599 14.7378 3.39253 14.9592 4.17415 15.0643C4.94138 15.1674 5.92389 15.1663 7.16683 15.1663V14.1663ZM1.3335 9.33301C1.3335 10.576 1.33243 11.5585 1.43559 12.3257C1.54067 13.1073 1.76208 13.7399 2.26099 14.2388L2.9681 13.5317C2.68596 13.2496 2.51685 12.8632 2.42667 12.1924C2.33456 11.5073 2.3335 10.6042 2.3335 9.33301H1.3335ZM9.8335 15.1663C11.0764 15.1663 12.0589 15.1674 12.8262 15.0643C13.6078 14.9592 14.2404 14.7378 14.7393 14.2388L14.0322 13.5317C13.7501 13.8139 13.3637 13.983 12.6929 14.0732C12.0078 14.1653 11.1047 14.1663 9.8335 14.1663V15.1663ZM14.6668 9.33301C14.6668 10.6042 14.6658 11.5073 14.5737 12.1924C14.4835 12.8632 14.3144 13.2496 14.0322 13.5317L14.7393 14.2388C15.2382 13.7399 15.4597 13.1073 15.5647 12.3257C15.6679 11.5585 15.6668 10.576 15.6668 9.33301H14.6668ZM2.3335 6.66634C2.3335 5.39513 2.33456 4.49202 2.42667 3.80691C2.51685 3.13618 2.68596 2.74975 2.9681 2.46761L2.26099 1.7605C1.76208 2.25941 1.54067 2.89204 1.43559 3.67366C1.33243 4.44089 1.3335 5.4234 1.3335 6.66634H2.3335ZM7.18669 0.833008C5.93708 0.833008 4.94977 0.831955 4.17941 0.935058C3.39504 1.04003 2.76029 1.2612 2.26099 1.7605L2.9681 2.46761C3.24985 2.18586 3.63747 2.01651 4.31206 1.92622C5.00066 1.83406 5.9089 1.83301 7.18669 1.83301V0.833008Z" fill="white"/>
<path d="M9.1665 1.66699V3.33366C9.1665 4.90501 9.1665 5.69068 9.65466 6.17884C10.1428 6.66699 10.9285 6.66699 12.4998 6.66699H15.1665" stroke="white"/>
<path d="M6.16683 8.99967L6.16683 12.333M6.16683 12.333L7.50016 11.083M6.16683 12.333L4.8335 11.083" stroke="white" stroke-linecap="round" stroke-linejoin="round"/>
</svg>
