<svg width="18" height="18" viewBox="0 0 18 18" fill="none" xmlns="http://www.w3.org/2000/svg">
<path fill-rule="evenodd" clip-rule="evenodd" d="M1.90873 6.54754C1.5 7.3497 1.5 8.3998 1.5 10.5C1.5 12.6002 1.5 13.6503 1.90873 14.4525C2.26825 15.1581 2.84193 15.7317 3.54754 16.0913C4.3497 16.5 5.3998 16.5 7.5 16.5H10.5C12.6002 16.5 13.6503 16.5 14.4525 16.0913C15.1581 15.7317 15.7317 15.1581 16.0913 14.4525C16.5 13.6503 16.5 12.6002 16.5 10.5C16.5 8.3998 16.5 7.3497 16.0913 6.54754C15.7317 5.84193 15.1581 5.26825 14.4525 4.90873C13.6503 4.5 12.6002 4.5 10.5 4.5H7.5C5.3998 4.5 4.3497 4.5 3.54754 4.90873C2.84193 5.26825 2.26825 5.84193 1.90873 6.54754ZM11.2946 9.37464C11.5015 9.14291 11.4814 8.78732 11.2496 8.58042C11.0179 8.37351 10.6623 8.39364 10.4554 8.62537L8.19643 11.1554L7.5446 10.4254C7.33769 10.1936 6.9821 10.1735 6.75037 10.3804C6.51864 10.5873 6.49851 10.9429 6.70542 11.1746L7.77684 12.3746C7.88356 12.4942 8.0362 12.5625 8.19643 12.5625C8.35667 12.5625 8.5093 12.4942 8.61602 12.3746L11.2946 9.37464Z" fill="#E25247"/>
<path d="M15.4011 2.59835C14.3028 1.5 12.535 1.5 8.99948 1.5C5.46394 1.5 3.69617 1.5 2.59782 2.59835C2.02971 3.16647 1.75545 3.91368 1.62305 4.99199C2.02104 4.54899 2.49927 4.17996 3.03627 3.90634C3.62238 3.6077 4.24998 3.4866 4.94487 3.42983C5.61622 3.37498 6.44228 3.37499 7.45235 3.375H10.5466C11.5567 3.37499 12.3827 3.37498 13.0541 3.42983C13.749 3.4866 14.3766 3.6077 14.9627 3.90634C15.4997 4.17996 15.9779 4.54899 16.3759 4.99199C16.2435 3.91368 15.9692 3.16647 15.4011 2.59835Z" fill="#E25247"/>
<rect x="3.75" y="6.75" width="9" height="8.25" fill="#E25247"/>
<path fill-rule="evenodd" clip-rule="evenodd" d="M7.1545 8.65548C7.34488 8.4651 7.65355 8.4651 7.84393 8.65548L8.99922 9.81077L10.1545 8.65549C10.3449 8.46511 10.6536 8.46511 10.8439 8.65549C11.0343 8.84587 11.0343 9.15454 10.8439 9.34492L9.68865 10.5002L10.8439 11.6555C11.0343 11.8458 11.0343 12.1545 10.8439 12.3449C10.6535 12.5353 10.3449 12.5353 10.1545 12.3449L8.99922 11.1896L7.84395 12.3449C7.65357 12.5353 7.3449 12.5353 7.15452 12.3449C6.96414 12.1545 6.96414 11.8459 7.15452 11.6555L8.3098 10.5002L7.1545 9.34491C6.96412 9.15453 6.96412 8.84586 7.1545 8.65548Z" fill="white"/>
</svg>
