<svg width="32" height="32" viewBox="0 0 32 32" fill="none" xmlns="http://www.w3.org/2000/svg">
<rect width="32" height="32" rx="6" fill="#FC5555" fill-opacity="0.1"/>
<path d="M9.23855 11.4205L9.23878 11.4205L10.7688 11.2705L10.7705 11.2703C14.7151 10.8699 18.7214 11.0247 22.7537 11.4205L22.7539 11.4205C22.7681 11.4219 22.7816 11.4285 22.7928 11.4422C22.8041 11.4561 22.809 11.4726 22.8074 11.4893L22.8073 11.4893L22.8065 11.4995C22.8055 11.5121 22.8005 11.5227 22.7901 11.5321C22.7788 11.5424 22.7644 11.5478 22.75 11.5478H22.7499H22.7498H22.7497H22.7496H22.7496H22.7495H22.7494H22.7493H22.7492H22.7491H22.749H22.7489H22.7488H22.7488H22.7487H22.7486H22.7485H22.7484H22.7483H22.7482H22.7481H22.748H22.7479H22.7478H22.7477H22.7477H22.7476H22.7475H22.7474H22.7473H22.7472H22.7471H22.747H22.7469H22.7468H22.7467H22.7466H22.7465H22.7464H22.7463H22.7463H22.7462H22.7461H22.746H22.7459H22.7458H22.7457H22.7456H22.7455H22.7454H22.7453H22.7452H22.7451H22.745H22.7449H22.7448H22.7447H22.7446H22.7445H22.7444H22.7443H22.7442H22.7441H22.744H22.7439H22.7438H22.7437H22.7436H22.7435H22.7434H22.7433H22.7432H22.7431H22.743H22.7429H22.7428H22.7427H22.7426H22.7425H22.7424H22.7423H22.7422H22.7421H22.742H22.7419H22.7418H22.7417H22.7416H22.7415H22.7414H22.7413H22.7412H22.7411H22.741H22.7409H22.7408H22.7407H22.7406H22.7405H22.7404H22.7403H22.7402H22.7401H22.74H22.7399H22.7398H22.7397H22.7396H22.7395H22.7394H22.7393H22.7392H22.7391H22.7389H22.7388H22.7387H22.7386H22.7385H22.7384H22.7383H22.7382H22.7381H22.738H22.7379H22.7378H22.7377H22.7376H22.7375H22.7374H22.7372H22.7371H22.737H22.7369H22.7368H22.7367H22.7366H22.7365H22.7364H22.7363H22.7362H22.7361H22.7359H22.7358H22.7357H22.7356H22.7355H22.7354H22.7353H22.7352H22.7351H22.735H22.7349H22.7347H22.7346H22.7345H22.7344H22.7343H22.7342H22.7341H22.734H22.7339H22.7337H22.7336H22.7335H22.7334H22.7333H22.7332H22.7331H22.733H22.7329H22.7327H22.7326H22.7325H22.7324H22.7323H22.7322H22.7321H22.7319H22.7318H22.7317H22.7316H22.7315H22.7314H22.7313H22.7312H22.731H22.7309H22.7308H22.7307H22.7306H22.7305H22.7304H22.7302H22.7301H22.73H22.7299H22.7298H22.7297H22.7295H22.7294H22.7293H22.7292H22.7291H22.729H22.7289H22.7287H22.7286H22.7285H22.7284H22.7283H22.7282H22.728H22.7279H22.7278H22.7277H22.7276H22.7275H22.7273H22.7272H22.7271H22.727H22.7269H22.7267H22.7266H22.7265H22.7264H22.7263H22.7262H22.726H22.7259H22.7258H22.7257H22.7256H22.7254H22.7253H22.7252H22.7251H22.725H22.7249H22.7247H22.7246H22.7245H22.7244H22.7243H22.7241H22.724H22.7239H22.7238H22.7237H22.7235H22.7234H22.7233H22.7232H22.7231H22.7229H22.7228H22.7227H22.7226H22.7224H22.7223H22.7222H22.7221H22.722H22.7218H22.7217H22.7216H22.7215H22.7214H22.7212H22.7211H22.721H22.7209H22.7207H22.7206H22.7205H22.7204H22.7203H22.7201H22.72H22.7199H22.7198H22.7196H22.7195H22.7194H22.7193H22.7191H22.719H22.7189H22.7188H22.7187H22.7185H22.7184H22.7183H22.7182H22.718H22.7179H22.7178H22.7177H22.7175H22.7174H22.7173H22.7172H22.717H22.7169H22.7168H22.7167H22.7165H22.7164H22.7163H22.7162H22.716H22.7159H22.7158H22.7157H22.7155H22.7154H22.7153H22.7152H22.715H22.715C18.7369 11.1503 14.7495 10.9992 10.7904 11.4003C10.7901 11.4003 10.7899 11.4004 10.7896 11.4004L9.26259 11.5501C9.26246 11.5501 9.26233 11.5501 9.2622 11.5501C9.23865 11.5523 9.22075 11.5453 9.20814 11.535C9.19581 11.5249 9.18718 11.5108 9.18525 11.4904C9.18302 11.467 9.18984 11.4514 9.19843 11.441C9.20732 11.4302 9.22015 11.4223 9.23855 11.4205Z" fill="#292D32" stroke="#FC5555"/>
<path d="M13.3751 10.79L13.3636 10.79C13.3512 10.7877 13.3359 10.7797 13.3239 10.7628C13.3121 10.7462 13.3111 10.7321 13.3126 10.7237L13.3132 10.7203L13.4782 9.73781L13.4783 9.7372C13.5417 9.35686 13.6007 9.06195 13.7797 8.84082C13.9308 8.65408 14.2424 8.4375 15.0176 8.4375H16.9826C17.7562 8.4375 18.0703 8.66016 18.2236 8.85269C18.4047 9.08012 18.4623 9.3791 18.5216 9.74296L18.5216 9.74296L18.5221 9.74593L18.6871 10.7209L18.6872 10.7216C18.69 10.738 18.6863 10.7543 18.6762 10.7684C18.666 10.7827 18.6552 10.787 18.6484 10.788L18.6484 10.7879L18.6384 10.7896C18.6221 10.7924 18.6058 10.7887 18.5916 10.7786C18.5773 10.7685 18.5731 10.7576 18.572 10.7508L18.5721 10.7508L18.5706 10.7416L18.4059 9.7686L18.4036 9.75455C18.3798 9.60629 18.3547 9.44991 18.3171 9.31693C18.2765 9.17323 18.2068 8.99909 18.0564 8.85468C17.9033 8.70762 17.7196 8.64177 17.549 8.60906C17.3845 8.57754 17.1946 8.57 16.9901 8.57H15.0251C14.8234 8.57 14.6358 8.576 14.4745 8.60443C14.3077 8.63386 14.1222 8.6949 13.9662 8.8409C13.8126 8.98467 13.7424 9.16017 13.7016 9.30276C13.6645 9.43266 13.6385 9.58715 13.6135 9.7357C13.6123 9.74295 13.6111 9.75018 13.6099 9.7574L13.4377 10.7304L13.4377 10.7304L13.4365 10.7375C13.4317 10.7672 13.4056 10.79 13.3751 10.79Z" fill="#292D32" stroke="#FC5555"/>
<path d="M10.799 13.8605L10.799 13.8605L10.7987 13.8562C10.7979 13.8454 10.801 13.8311 10.8143 13.816C10.8264 13.8022 10.8413 13.7944 10.8559 13.792C10.8778 13.7925 10.8937 13.8002 10.9048 13.8099C10.9169 13.8205 10.9247 13.8347 10.9263 13.853L11.4136 21.4024L11.4136 21.4024L11.4139 21.4063L11.4155 21.4289C11.4348 21.6962 11.454 21.9617 11.4986 22.1913C11.5455 22.4328 11.6295 22.6892 11.816 22.9068C12.1931 23.3468 12.8187 23.4377 13.5925 23.4377H18.4075C19.1841 23.4377 19.8123 23.3471 20.1897 22.9068C20.3769 22.6884 20.4603 22.4312 20.5062 22.1891C20.55 21.9576 20.5676 21.6902 20.5853 21.4212L20.5865 21.403L20.5865 21.4024L21.0738 13.8531C21.0751 13.8389 21.0817 13.8242 21.0965 13.8113C21.1105 13.7992 21.1274 13.7926 21.1447 13.792C21.1625 13.7947 21.1771 13.8033 21.1872 13.8148C21.1976 13.8264 21.2026 13.8397 21.2013 13.8571L21.2011 13.8605L20.7138 21.41C20.7138 21.4105 20.7137 21.411 20.7137 21.4115C20.6704 22.0252 20.6213 22.5284 20.3541 22.9016C20.1197 23.2291 19.6274 23.5627 18.4075 23.5627H13.5925C12.3727 23.5627 11.8804 23.2291 11.646 22.9016C11.3788 22.5284 11.3297 22.0251 11.2864 21.4115C11.2864 21.411 11.2863 21.4105 11.2863 21.41L10.799 13.8605Z" fill="#292D32" stroke="#FC5555"/>
<path d="M17.2451 19.4375H14.7476C14.7345 19.4375 14.7188 19.4323 14.7045 19.418C14.6903 19.4037 14.6851 19.3881 14.6851 19.375C14.6851 19.3619 14.6903 19.3463 14.7045 19.332C14.7188 19.3177 14.7345 19.3125 14.7476 19.3125H17.2451C17.2581 19.3125 17.2738 19.3177 17.2881 19.332C17.3024 19.3463 17.3076 19.3619 17.3076 19.375C17.3076 19.3881 17.3024 19.4037 17.2881 19.418C17.2738 19.4323 17.2581 19.4375 17.2451 19.4375Z" fill="#292D32" stroke="#FC5555"/>
<path d="M17.875 16.4375H14.125C14.1119 16.4375 14.0963 16.4323 14.082 16.418C14.0677 16.4037 14.0625 16.3881 14.0625 16.375C14.0625 16.3619 14.0677 16.3463 14.082 16.332C14.0963 16.3177 14.1119 16.3125 14.125 16.3125H17.875C17.8881 16.3125 17.9037 16.3177 17.918 16.332C17.9323 16.3463 17.9375 16.3619 17.9375 16.375C17.9375 16.3881 17.9323 16.4037 17.918 16.418C17.9037 16.4323 17.8881 16.4375 17.875 16.4375Z" fill="#292D32" stroke="#FC5555"/>
</svg>
