<svg width="20" height="20" viewBox="0 0 14 14" fill="none" xmlns="http://www.w3.org/2000/svg">
<path d="M11.9867 3.6638C10.1413 3.48093 8.28489 3.38672 6.43397 3.38672C5.33672 3.38672 4.23947 3.44214 3.14222 3.55297L2.01172 3.6638" stroke="#667085" stroke-width="0.83125" stroke-linecap="round" stroke-linejoin="round"/>
<path d="M5.06055 3.10388L5.18246 2.37792C5.27113 1.85147 5.33763 1.45801 6.27417 1.45801H7.72609C8.66263 1.45801 8.73467 1.87363 8.8178 2.38347L8.93971 3.10388" stroke="#667085" stroke-width="0.83125" stroke-linecap="round" stroke-linejoin="round"/>
<path d="M10.7952 5.41504L10.435 10.9955C10.374 11.8655 10.3242 12.5416 8.77804 12.5416H5.22029C3.67417 12.5416 3.62429 11.8655 3.56333 10.9955L3.20312 5.41504" stroke="#667085" stroke-width="0.83125" stroke-linecap="round" stroke-linejoin="round"/>
<path d="M6.07422 9.49414H7.91959" stroke="#667085" stroke-width="0.83125" stroke-linecap="round" stroke-linejoin="round"/>
<path d="M5.61328 7.27734H8.38411" stroke="#667085" stroke-width="0.83125" stroke-linecap="round" stroke-linejoin="round"/>
</svg>
