<svg width="20" height="20" viewBox="0 0 14 14" fill="none" xmlns="http://www.w3.org/2000/svg">
<path d="M6.44453 1.45801H5.3362C2.56536 1.45801 1.45703 2.56634 1.45703 5.33717V8.66217C1.45703 11.433 2.56536 12.5413 5.3362 12.5413H8.6612C11.432 12.5413 12.5404 11.433 12.5404 8.66217V7.55384" stroke="#667085" stroke-width="0.83125" stroke-linecap="round" stroke-linejoin="round"/>
<path d="M9.2384 2.02381L4.87157 6.39064C4.70532 6.55689 4.53907 6.88385 4.50582 7.12214L4.26753 8.79018C4.17886 9.39423 4.60557 9.81539 5.20961 9.73227L6.87765 9.49398C7.1104 9.46073 7.43736 9.29448 7.60915 9.12823L11.976 4.76139C12.7296 4.00773 13.0843 3.13214 11.976 2.02381C10.8676 0.915475 9.99207 1.27014 9.2384 2.02381Z" stroke="#667085" stroke-width="0.83125" stroke-miterlimit="10" stroke-linecap="round" stroke-linejoin="round"/>
<path d="M8.61328 2.64941C8.98457 3.97387 10.0209 5.01016 11.3509 5.387" stroke="#667085" stroke-width="0.83125" stroke-miterlimit="10" stroke-linecap="round" stroke-linejoin="round"/>
</svg>
