<svg width="20" height="20" viewBox="0 0 14 14" fill="none" xmlns="http://www.w3.org/2000/svg">
<path d="M8.98346 7.00052C8.98346 8.09777 8.09679 8.98443 6.99954 8.98443C5.90229 8.98443 5.01562 8.09777 5.01562 7.00052C5.01562 5.90327 5.90229 5.0166 6.99954 5.0166C8.09679 5.0166 8.98346 5.90327 8.98346 7.00052Z" stroke="#667085" stroke-width="0.9975" stroke-linecap="round" stroke-linejoin="round"/>
<path d="M6.99869 11.5826C8.9549 11.5826 10.7781 10.4299 12.0472 8.43492C12.5459 7.65355 12.5459 6.34017 12.0472 5.5588C10.7781 3.5638 8.9549 2.41113 6.99869 2.41113C5.04248 2.41113 3.21928 3.5638 1.95023 5.5588C1.45148 6.34017 1.45148 7.65355 1.95023 8.43492C3.21928 10.4299 5.04248 11.5826 6.99869 11.5826Z" stroke="#667085" stroke-width="0.9975" stroke-linecap="round" stroke-linejoin="round"/>
</svg>
