<svg width="16" height="16" viewBox="0 0 16 16" fill="none" xmlns="http://www.w3.org/2000/svg">
<g clip-path="url(#clip0_3457_28266)">
<path d="M2.83927 4.59871H4.1229C4.37624 5.53086 5.33727 6.08114 6.26942 5.8278C6.86811 5.66508 7.33579 5.1974 7.49851 4.59871H13.1608C13.4199 4.59871 13.63 4.38866 13.63 4.12956C13.63 3.87045 13.4199 3.6604 13.1608 3.6604H7.49851C7.24516 2.72823 6.28413 2.17795 5.35198 2.43129C4.7533 2.59401 4.28562 3.06169 4.1229 3.66038H2.83927C2.58016 3.66038 2.37012 3.87042 2.37012 4.12953C2.37012 4.38864 2.58016 4.59871 2.83927 4.59871Z" fill="#858D9D"/>
<path d="M13.1608 7.53194H11.8772C11.6243 6.59992 10.6639 6.04933 9.73183 6.30215C9.13266 6.46469 8.66459 6.93274 8.50204 7.53194H2.83927C2.58016 7.53194 2.37012 7.74198 2.37012 8.00109C2.37012 8.2602 2.58016 8.47024 2.83927 8.47024H8.50204C8.75488 9.40226 9.71538 9.95285 10.6474 9.70003C11.2466 9.53749 11.7146 9.06944 11.8772 8.47024H13.1608C13.4199 8.47024 13.63 8.2602 13.63 8.00109C13.63 7.74198 13.4199 7.53194 13.1608 7.53194Z" fill="#858D9D"/>
<path d="M13.1608 11.4011H7.49851C7.24516 10.469 6.28413 9.91867 5.35198 10.172C4.7533 10.3347 4.28562 10.8024 4.1229 11.4011H2.83927C2.58016 11.4011 2.37012 11.6111 2.37012 11.8703C2.37012 12.1294 2.58016 12.3394 2.83927 12.3394H4.1229C4.37624 13.2716 5.33727 13.8218 6.26942 13.5685C6.86811 13.4058 7.33579 12.9381 7.49851 12.3394H13.1608C13.4199 12.3394 13.63 12.1294 13.63 11.8703C13.63 11.6111 13.4199 11.4011 13.1608 11.4011Z" fill="#858D9D"/>
</g>
<defs>
<clipPath id="clip0_3457_28266">
<rect width="11.261" height="11.261" fill="white" transform="translate(2.36914 2.36963)"/>
</clipPath>
</defs>
</svg>
