<svg width="16" height="16" viewBox="0 0 16 16" fill="none" xmlns="http://www.w3.org/2000/svg">
<path opacity="0.4" d="M5.77952 9.33398H2.66619C1.93286 9.33398 1.33286 9.93398 1.33286 10.6673V14.6673H5.77952V9.33398Z" fill="#075FCC"/>
<path d="M8.88619 6.66602H7.10619C6.37286 6.66602 5.77286 7.26602 5.77286 7.99935V14.666H10.2195V7.99935C10.2195 7.26602 9.62619 6.66602 8.88619 6.66602Z" fill="#075FCC"/>
<path opacity="0.4" d="M13.3328 11.334H10.2195V14.6673H14.6662V12.6673C14.6662 11.934 14.0662 11.334 13.3328 11.334Z" fill="#075FCC"/>
<path d="M10.0062 3.233C10.2129 3.02634 10.2929 2.77967 10.2262 2.56634C10.1595 2.353 9.95286 2.19967 9.65953 2.15301L9.01952 2.04634C8.99286 2.03967 8.93286 1.99966 8.91953 1.97299L8.56619 1.26633C8.29952 0.726328 7.69286 0.726328 7.42619 1.26633L7.07286 1.97299C7.05953 1.99966 6.99952 2.03967 6.97286 2.04634L6.33286 2.15301C6.03953 2.19967 5.83953 2.353 5.76619 2.56634C5.69953 2.77967 5.77952 3.02634 5.98619 3.233L6.47953 3.733C6.49953 3.753 6.52619 3.833 6.51952 3.85967L6.37953 4.47299C6.27286 4.92633 6.44619 5.13299 6.55953 5.21966C6.67286 5.29966 6.91953 5.40633 7.32619 5.16633L7.92619 4.813C7.95286 4.793 8.03952 4.793 8.06619 4.813L8.66619 5.16633C8.85286 5.27967 9.00619 5.313 9.12619 5.313C9.26619 5.313 9.36619 5.25966 9.42619 5.21966C9.53952 5.13966 9.71286 4.93299 9.60619 4.47299L9.46619 3.85967C9.45953 3.82634 9.47952 3.753 9.50619 3.733L10.0062 3.233Z" fill="#075FCC"/>
</svg>
