<svg width="16" height="16" viewBox="0 0 16 16" fill="none" xmlns="http://www.w3.org/2000/svg">
<path opacity="0.4" d="M11.9995 2H3.99952C2.52619 2 1.33286 3.18667 1.33286 4.64667V11.3533C1.33286 12.8133 2.52619 14 3.99952 14H11.9995C13.4729 14 14.6662 12.8133 14.6662 11.3533V4.64667C14.6662 3.18667 13.4729 2 11.9995 2Z" fill="#075FCC"/>
<path d="M12.6662 5.83398H9.33286C9.05952 5.83398 8.83286 5.60732 8.83286 5.33398C8.83286 5.06065 9.05952 4.83398 9.33286 4.83398H12.6662C12.9395 4.83398 13.1662 5.06065 13.1662 5.33398C13.1662 5.60732 12.9395 5.83398 12.6662 5.83398Z" fill="#075FCC"/>
<path d="M12.6662 8.5H9.99951C9.72618 8.5 9.49951 8.27333 9.49951 8C9.49951 7.72667 9.72618 7.5 9.99951 7.5H12.6662C12.9395 7.5 13.1662 7.72667 13.1662 8C13.1662 8.27333 12.9395 8.5 12.6662 8.5Z" fill="#075FCC"/>
<path d="M12.6662 11.166H11.3329C11.0595 11.166 10.8329 10.9393 10.8329 10.666C10.8329 10.3927 11.0595 10.166 11.3329 10.166H12.6662C12.9395 10.166 13.1662 10.3927 13.1662 10.666C13.1662 10.9393 12.9395 11.166 12.6662 11.166Z" fill="#075FCC"/>
<path d="M5.66619 7.8593C6.51671 7.8593 7.20619 7.16982 7.20619 6.3193C7.20619 5.46878 6.51671 4.7793 5.66619 4.7793C4.81567 4.7793 4.12619 5.46878 4.12619 6.3193C4.12619 7.16982 4.81567 7.8593 5.66619 7.8593Z" fill="#075FCC"/>
<path d="M6.19953 8.73984C5.8462 8.70651 5.47953 8.70651 5.1262 8.73984C4.0062 8.84651 3.1062 9.73318 2.99953 10.8532C2.99286 10.9465 3.01953 11.0398 3.0862 11.1065C3.15286 11.1732 3.23953 11.2198 3.33286 11.2198H7.99953C8.09286 11.2198 8.1862 11.1798 8.2462 11.1132C8.3062 11.0465 8.33953 10.9532 8.33286 10.8598C8.21953 9.73318 7.3262 8.84651 6.19953 8.73984Z" fill="#075FCC"/>
</svg>
