<svg width="24" height="24" viewBox="0 0 24 24" fill="none" xmlns="http://www.w3.org/2000/svg">
<path d="M12 23.9996C5.3832 23.9996 0 18.6164 0 11.9996C0 5.3828 5.3832 0 12 0C18.6168 0 24 5.3828 24 11.9996C24 18.6164 18.6164 23.9996 12 23.9996Z" fill="white"/>
<path d="M18.0808 3.54686C18.593 3.54686 19.0993 3.57319 19.5988 3.62107C17.5888 1.79661 14.9222 0.683105 12.0002 0.683105C5.7604 0.683105 0.683594 5.75951 0.683594 11.9997C0.683594 14.2267 1.3331 16.3041 2.4486 18.0567C3.04785 9.94383 9.81465 3.54686 18.0808 3.54686Z" fill="#E0E0E0"/>
<path d="M11.9994 23.3158C18.2392 23.3158 23.316 18.2394 23.316 11.9992C23.316 8.68144 21.8805 5.69281 19.5985 3.62059C19.0989 3.57272 18.5927 3.54639 18.0804 3.54639C9.81469 3.54639 3.04748 9.94375 2.44824 18.0563C4.45782 21.2148 7.98704 23.3158 11.9994 23.3158Z" fill="#B5B5B5"/>
<path d="M12.0001 20.95C16.9433 20.95 20.9505 16.9428 20.9505 11.9996C20.9505 7.05652 16.9433 3.04932 12.0001 3.04932C7.057 3.04932 3.0498 7.05652 3.0498 11.9996C3.0498 16.9428 7.057 20.95 12.0001 20.95Z" fill="#9E9E9E"/>
<path d="M12.4625 12.318C12.838 12.318 13.1682 12.2683 13.4532 12.1687C13.7427 12.0692 13.9847 11.9312 14.1792 11.7548C14.3783 11.5739 14.5276 11.359 14.6271 11.1102C14.7266 10.8614 14.7764 10.5877 14.7764 10.2892C14.7764 9.66942 14.5841 9.18539 14.1996 8.83707C13.8196 8.48875 13.2406 8.31459 12.4625 8.31459H10.9019V12.318H12.4625ZM12.4625 7.27641C13.0777 7.27641 13.6115 7.34879 14.0639 7.49355C14.5208 7.63378 14.8985 7.83508 15.1971 8.09745C15.4956 8.35982 15.7173 8.67648 15.862 9.04742C16.0113 9.41836 16.086 9.83227 16.086 10.2892C16.086 10.7415 16.0068 11.1554 15.8485 11.5309C15.6901 11.9064 15.4572 12.2298 15.1496 12.5012C14.8465 12.7726 14.4688 12.9853 14.0164 13.1391C13.5686 13.2883 13.0506 13.363 12.4625 13.363H10.9019V17H9.59226V7.27641H12.4625Z" fill="white"/>
</svg>
