<svg width="160" height="160" viewBox="0 0 160 160" fill="none" xmlns="http://www.w3.org/2000/svg">
<path d="M152.625 100.999C154.959 101.674 156.316 104.119 155.514 106.413C149.416 123.848 137.45 138.685 121.595 148.336C104.484 158.752 84.088 162.368 64.4388 158.472C44.7895 154.575 27.3171 143.449 15.4752 127.292C3.63334 111.135 -1.7162 91.1237 0.484027 71.2131C2.68426 51.3024 12.2741 32.9417 27.3581 19.7603C42.442 6.57882 61.9222 -0.46408 81.9481 0.023723C101.974 0.511526 121.088 8.49453 135.512 22.3948C148.878 35.2746 157.315 52.3662 159.459 70.7124C159.741 73.126 157.883 75.2158 155.458 75.3648C153.032 75.5138 150.959 73.6651 150.661 71.2535C148.663 55.1076 141.185 40.0818 129.406 28.7313C116.569 16.3601 99.5569 9.25526 81.7338 8.82112C63.9108 8.38697 46.5734 14.6552 33.1487 26.3866C19.724 38.1181 11.189 54.4592 9.23079 72.1796C7.27258 89.9001 12.0337 107.71 22.5729 122.09C33.1122 136.47 48.6627 146.372 66.1505 149.84C83.6383 153.308 101.791 150.089 117.02 140.819C130.992 132.314 141.571 119.284 147.046 103.964C147.864 101.676 150.291 100.324 152.625 100.999Z" fill="#2D8DFF"/>
</svg>
