<svg width="24" height="24" viewBox="0 0 24 24" fill="none" xmlns="http://www.w3.org/2000/svg">
<path d="M12 1C5.93355 1 1 5.93355 1 12C1 18.0664 5.93355 23 12 23C18.0664 23 23 18.0664 23 12C23 5.93355 18.0664 1 12 1ZM12 2.46667C17.2738 2.46667 21.5333 6.7262 21.5333 12C21.5333 17.2738 17.2738 21.5333 12 21.5333C6.7262 21.5333 2.46667 17.2738 2.46667 12C2.46667 6.7262 6.7262 2.46667 12 2.46667ZM12.2444 6.13333C10.1128 6.13333 8.33333 7.79911 8.33333 9.88403C8.33196 9.9812 8.34991 10.0777 8.38615 10.1679C8.42239 10.258 8.47618 10.3401 8.54442 10.4093C8.61265 10.4785 8.69395 10.5335 8.78361 10.571C8.87327 10.6085 8.96948 10.6278 9.06667 10.6278C9.16385 10.6278 9.26007 10.6085 9.34972 10.571C9.43938 10.5335 9.52068 10.4785 9.58892 10.4093C9.65715 10.3401 9.71095 10.258 9.74718 10.1679C9.78342 10.0777 9.80137 9.9812 9.8 9.88403C9.8 8.63317 10.866 7.6 12.2444 7.6C13.6228 7.6 14.6889 8.63317 14.6889 9.88403C14.6889 10.7638 14.2307 11.2257 13.5278 11.8243C12.8248 12.4229 11.8446 13.0534 11.534 14.2611C11.5099 14.3544 11.5045 14.4515 11.5179 14.5469C11.5314 14.6424 11.5635 14.7342 11.6124 14.8172C11.6614 14.9002 11.7262 14.9727 11.8032 15.0307C11.8802 15.0886 11.9678 15.1309 12.0611 15.1549C12.1544 15.179 12.2515 15.1845 12.3469 15.171C12.4423 15.1575 12.5342 15.1254 12.6172 15.0765C12.7002 15.0275 12.7727 14.9627 12.8306 14.8857C12.8886 14.8087 12.9308 14.7211 12.9549 14.6278C13.0961 14.0786 13.702 13.5979 14.475 12.9396C15.248 12.2813 16.1556 11.3355 16.1556 9.88403C16.1556 7.79911 14.3761 6.13333 12.2444 6.13333ZM12.2444 15.9111C11.7044 15.9111 11.2667 16.3489 11.2667 16.8889C11.2667 17.4289 11.7044 17.8667 12.2444 17.8667C12.7845 17.8667 13.2222 17.4289 13.2222 16.8889C13.2222 16.3489 12.7845 15.9111 12.2444 15.9111Z" fill="#555555"/>
</svg>
