<svg width="16" height="16" viewBox="0 0 14 14" fill="none" xmlns="http://www.w3.org/2000/svg">
<path fill-rule="evenodd" clip-rule="evenodd" d="M9.70866 2.26025C9.93302 2.26025 10.1149 2.44214 10.1149 2.6665V10.1144L11.0087 8.92275C11.1433 8.74326 11.3979 8.70688 11.5774 8.8415C11.7569 8.97612 11.7933 9.23076 11.6587 9.41025L10.0337 11.5769C9.92874 11.7168 9.74608 11.7739 9.58019 11.7186C9.4143 11.6633 9.30241 11.508 9.30241 11.3332V2.6665C9.30241 2.44214 9.48429 2.26025 9.70866 2.26025ZM4.42741 3.74984C4.42741 3.52547 4.60929 3.34359 4.83366 3.34359H7.54199C7.76636 3.34359 7.94824 3.52547 7.94824 3.74984C7.94824 3.9742 7.76636 4.15609 7.54199 4.15609H4.83366C4.60929 4.15609 4.42741 3.9742 4.42741 3.74984ZM3.34408 6.45817C3.34408 6.2338 3.52596 6.05192 3.75033 6.05192H7.54199C7.76636 6.05192 7.94824 6.2338 7.94824 6.45817C7.94824 6.68254 7.76636 6.86442 7.54199 6.86442H3.75033C3.52596 6.86442 3.34408 6.68254 3.34408 6.45817ZM2.26074 9.1665C2.26074 8.94214 2.44263 8.76025 2.66699 8.76025H7.54199C7.76636 8.76025 7.94824 8.94214 7.94824 9.1665C7.94824 9.39087 7.76636 9.57275 7.54199 9.57275H2.66699C2.44263 9.57275 2.26074 9.39087 2.26074 9.1665Z" fill="#666685"/>
</svg>
