<svg width="32" height="32" viewBox="0 0 32 32" fill="none" xmlns="http://www.w3.org/2000/svg">
<path opacity="0.4" d="M24.4666 26.24C23.7333 28.12 21.9466 29.3333 19.9333 29.3333H12.0666C10.04 29.3333 8.26664 28.12 7.53331 26.24C6.79997 24.3467 7.30664 22.2533 8.79997 20.8933L14.2 16H17.8133L23.2 20.8933C24.6933 22.2533 25.1866 24.3467 24.4666 26.24Z" fill="#1680FF"/>
<path d="M18.427 24.1864H13.5737C13.067 24.1864 12.667 23.773 12.667 23.2797C12.667 22.773 13.0803 22.373 13.5737 22.373H18.427C18.9337 22.373 19.3337 22.7864 19.3337 23.2797C19.3337 23.773 18.9203 24.1864 18.427 24.1864Z" fill="#1680FF"/>
<path d="M24.4662 5.75935C23.7329 3.87935 21.9462 2.66602 19.9329 2.66602H12.0662C10.0529 2.66602 8.26623 3.87935 7.5329 5.75935C6.8129 7.65268 7.30623 9.74602 8.8129 11.106L14.1996 15.9993H17.8129L23.1996 11.106C24.6929 9.74602 25.1862 7.65268 24.4662 5.75935ZM18.4262 9.63935H13.5729C13.0662 9.63935 12.6662 9.22602 12.6662 8.73268C12.6662 8.23935 13.0796 7.82601 13.5729 7.82601H18.4262C18.9329 7.82601 19.3329 8.23935 19.3329 8.73268C19.3329 9.22602 18.9196 9.63935 18.4262 9.63935Z" fill="#1680FF"/>
</svg>
