<svg width="14" height="14" viewBox="0 0 14 14" fill="none" xmlns="http://www.w3.org/2000/svg">
<path fill-rule="evenodd" clip-rule="evenodd" d="M13.3333 6.66667C13.3333 10.3486 10.3486 13.3333 6.66667 13.3333C2.98477 13.3333 0 10.3486 0 6.66667C0 2.98477 2.98477 0 6.66667 0C10.3486 0 13.3333 2.98477 13.3333 6.66667ZM6.66667 10.5C6.94281 10.5 7.16667 10.2761 7.16667 10V6C7.16667 5.72386 6.94281 5.5 6.66667 5.5C6.39052 5.5 6.16667 5.72386 6.16667 6V10C6.16667 10.2761 6.39052 10.5 6.66667 10.5ZM6.66667 3.33333C7.03486 3.33333 7.33333 3.63181 7.33333 4C7.33333 4.36819 7.03486 4.66667 6.66667 4.66667C6.29848 4.66667 6 4.36819 6 4C6 3.63181 6.29848 3.33333 6.66667 3.33333Z" fill="#FFCC00"/>
</svg>
